<svg xmlns="http://www.w3.org/2000/svg" width="1000" height="180" viewBox="0 0 1000 180" role="img" aria-labelledby="title desc">
  <title id="title">ISANDRE wordmark</title>
  <desc id="desc">Custom capital wordmark for ISANDRE.</desc>
  <path d="M32 32H92V44H73V136H92V148H32V136H51V44H32ZM226 49C210 39 194 35 176 35C149 35 131 48 131 68C131 87 146 98 175 105L188 108C210 113 220 121 220 133C220 146 207 153 186 153C165 153 146 145 130 133L125 146C142 159 162 166 186 166C220 166 240 152 240 131C240 109 224 99 191 91L177 88C158 83 150 77 150 66C150 54 161 47 179 47C195 47 209 52 222 61ZM270 148L316 32H338L385 148H365L353 116H299L287 148ZM306 99H347L327 49ZM414 148V32H432L500 117V32H518V148H501L432 61V148ZM552 32H594C635 32 659 54 659 90C659 126 635 148 594 148H552ZM571 48V132H593C623 132 640 117 640 90C640 63 623 48 593 48ZM695 148V32H741C773 32 792 48 792 73C792 91 783 104 766 111L803 148H779L745 115H714V148ZM714 48V100H739C761 100 773 91 773 74C773 57 761 48 740 48ZM835 32H923V48H854V81H914V97H854V132H927V148H835Z" fill="#F4EFE6" fill-rule="evenodd"/>
</svg>
